<?xml version="1.0" encoding="UTF-8"?>
<svg width="32" height="32" viewBox="0 0 24 24" fill="none" xmlns="http://www.w3.org/2000/svg">
  <path d="M4 4C4 3.44772 4.44772 3 5 3H19C19.5523 3 20 3.44772 20 4V20C20 20.5523 19.5523 21 19 21H5C4.44772 21 4 20.5523 4 20V4Z" fill="#2563eb"/>
  <path d="M7 7.5C7 7.22386 7.22386 7 7.5 7H16.5C16.7761 7 17 7.22386 17 7.5V8.5C17 8.77614 16.7761 9 16.5 9H7.5C7.22386 9 7 8.77614 7 8.5V7.5Z" fill="white"/>
  <path d="M9 12L12 15L15 12" stroke="white" stroke-width="1.5" stroke-linecap="round" stroke-linejoin="round"/>
</svg>
